<svg id="visual" viewBox="0 0 900 600" width="900" height="600" xmlns="http://www.w3.org/2000/svg" xmlns:xlink="http://www.w3.org/1999/xlink" version="1.1"><rect x="0" y="0" width="900" height="600" fill="#001220"></rect><defs><linearGradient id="grad1_0" x1="33.3%" y1="100%" x2="100%" y2="0%"><stop offset="20%" stop-color="#001220" stop-opacity="1"></stop><stop offset="80%" stop-color="#001220" stop-opacity="1"></stop></linearGradient></defs><defs><linearGradient id="grad2_0" x1="0%" y1="100%" x2="66.7%" y2="0%"><stop offset="20%" stop-color="#001220" stop-opacity="1"></stop><stop offset="80%" stop-color="#001220" stop-opacity="1"></stop></linearGradient></defs><g transform="translate(900, 600)"><path d="M-243.4 0C-231.5 -39.2 -219.7 -78.3 -200.9 -116C-182.1 -153.7 -156.3 -189.8 -121.7 -210.8C-87 -231.7 -43.5 -237.6 0 -243.4L0 0Z" fill="#FBAE3C"></path></g><g transform="translate(0, 0)"><path d="M243.4 0C237 42.5 230.5 85 210.8 121.7C191 158.4 157.9 189.4 120.5 208.7C83.1 228 41.6 235.7 0 243.4L0 0Z" fill="#FBAE3C"></path></g></svg>