<svg id="visual" viewBox="0 0 900 600" width="900" height="600" xmlns="http://www.w3.org/2000/svg" xmlns:xlink="http://www.w3.org/1999/xlink" version="1.1"><rect x="0" y="0" width="900" height="600" fill="#f7f7fa"></rect><defs><linearGradient id="grad1_0" x1="33.3%" y1="100%" x2="100%" y2="0%"><stop offset="20%" stop-color="#f7f7fa" stop-opacity="1"></stop><stop offset="80%" stop-color="#f7f7fa" stop-opacity="1"></stop></linearGradient></defs><defs><linearGradient id="grad2_0" x1="0%" y1="100%" x2="66.7%" y2="0%"><stop offset="20%" stop-color="#f7f7fa" stop-opacity="1"></stop><stop offset="80%" stop-color="#f7f7fa" stop-opacity="1"></stop></linearGradient></defs><g transform="translate(900, 600)"><path d="M-324.5 0C-316.8 -58.2 -309.2 -116.4 -281 -162.2C-252.9 -208.1 -204.3 -241.7 -154 -266.7C-103.7 -291.7 -51.9 -308.1 0 -324.5L0 0Z" fill="#1f62ff"></path></g><g transform="translate(0, 0)"><path d="M324.5 0C316.1 56.9 307.7 113.8 281 162.2C254.3 210.7 209.4 250.6 159.5 276.3C109.6 301.9 54.8 313.2 0 324.5L0 0Z" fill="#1f62ff"></path></g></svg>